<svg width="39" height="38" viewBox="0 0 39 38" fill="none" xmlns="http://www.w3.org/2000/svg">
<path d="M14.2067 0C27.7676 0.0513229 35.5437 11.9377 30.199 22.151C28.6584 25.0866 29.2663 26.4313 31.3622 28.2686C33.6678 30.2805 35.7743 32.4976 37.9331 34.6635C38.7191 35.4436 39.6099 36.2853 38.4257 37.4452C37.2414 38.6051 36.424 37.7018 35.6066 36.9525C34.4852 35.9055 33.3429 34.879 32.3159 33.7602C28.9938 30.1265 26.3528 27.1087 20.1068 30.1984C14.4267 33.0006 8.23314 30.5268 3.92591 25.4972C-0.349883 20.4984 -1.17779 14.8528 1.66225 8.95071C4.49182 3.06911 9.42784 0.123175 14.2067 0ZM15.8415 27.6938C22.8421 27.7657 28.5012 22.3768 28.6165 15.52C28.7318 9.0123 23.1355 3.40784 16.3655 3.24361C9.26017 3.08964 3.60103 8.35536 3.49623 15.2326C3.39143 22.1612 8.79905 27.622 15.8415 27.6938Z" fill="#8D8888"></path>
</svg>
