<svg width="39" height="38" fill="none" xmlns="http://www.w3.org/2000/svg"><path d="M14.207 0c13.56.051 21.337 11.938 15.992 22.151-1.54 2.936-.933 4.28 1.163 6.118 2.306 2.012 4.412 4.229 6.571 6.395.786.78 1.677 1.621.493 2.781-1.185 1.16-2.002.257-2.82-.492-1.12-1.047-2.263-2.074-3.29-3.193-3.322-3.633-5.963-6.651-12.21-3.562-5.68 2.803-11.873.329-16.18-4.7-4.276-5-5.104-10.645-2.264-16.547C4.492 3.069 9.428.123 14.207 0Zm1.634 27.694c7.001.072 12.66-5.317 12.775-12.174.116-6.508-5.48-12.112-12.25-12.276C9.26 3.09 3.6 8.355 3.496 15.233 3.391 22.16 8.8 27.622 15.841 27.693Z" fill="#8D8888"/></svg>